{"title":"The Bourne Supremacy 2004 BluRay 1080p DTS x264","uid":5926402,"size":8559453221,"categoryP":"video","categoryS":"hd___movies","magnet":"?xt=urn:btih:8128aa438c8c27badb12c393a5ddef3f63c97175&amp;dn=The+Bourne+Supremacy+2004+BluRay+1080p+DTS+x264&amp;tr=udp%3A%2F%2Ftracker.openbittorrent.com%3A80&amp;tr=udp%3A%2F%2Fopen.demonii.com%3A1337&amp;tr=udp%3A%2F%2Ftracker.coppersurfer.tk%3A6969&amp;tr=udp%3A%2F%2Fexodus.desync.com%3A6969","seeders":2,"leechers":2,"uploader":"bobnjeff","files":1,"time":1288611521,"description":"\n\n\nThe Bourne Supremacy 2004 BluRay 1080p DTS x264 \n\n     Encoded by Tequila-Bob a.k.a. bobnjeff \n\nSource NTSC BluRay Disc\n\n &lt;a href=&quot;\nhttp://photobucket.com/The_Bourne_Supremacy_tequila_bob&quot; rel=&quot;nofollow&quot; target=&quot;_NEW&quot;&gt;\nhttp://photobucket.com/The_Bourne_Supremacy_tequila_bob&lt;/a&gt;\n &lt;a href=&quot;\nhttp://www.imdb.com/title/tt0372183/&quot; rel=&quot;nofollow&quot; target=&quot;_NEW&quot;&gt;\nhttp://www.imdb.com/title/tt0372183/&lt;/a&gt;\n\nRelease Date:23 July 2004 (USA) \n\n\n\nRated PG-13 for violence and intense action, and for brief language\n\nStoryline\nAfter escaping from the emotional and physical pain he previously encountered. Jason Bourne and his girlfriend Marie begin a new life as far away as possible. But when an assassination attempt on Bourne goes horribly wrong, Bourne must re-enter the life he wanted to leave behind, in order to find out the truth why they are still after him. \n\n\nCast\nCast overview, first billed only: \n Matt Damon  ...  Jason Bourne  \n Franka Potente  ...  Marie  \n Brian Cox  ...  Ward Abbott  \n Julia Stiles  ...  Nicky  \n Karl Urban  ...  Kirill  \n Gabriel Mann  ...  Danny Zorn  \n Joan Allen  ...  Pamela Landy  \n Marton Csokas  ...  Jarda  \n Tom Gallop  ...  Tom Cronin  \n John Bedford Lloyd  ...  Teddy  \n Ethan Sandler  ...  Kurt  \n Michelle Monaghan  ...  Kim  \n Karel Roden  ...  Gretkov  \n Tomas Arana  ...  Martin Marshall  \n Oksana Akinshina \n\nFormat : Matroska \nFile size : 7.97 GiB \nDuration : 1h 48mn \nOverall bit rate : 10.5 Mbps \nEncoded date : UTC 2010-10-30 12:24:32 \nWriting application : mkvmerge v4.3.0 ('Escape from the Island') built on Sep 5 2010 10:30:51 \nWriting library : libebml v1.0.0 + libmatroska v1.0.0 \n\nVideo \nI\nCodec ID : V_MPEG4/ISO/AVC \nDuration : 1h 48mn \nBit rate mode : Variable \nBit rate : 8 985 Kbps \nMaximum bit rate : 40.0 Mbps \nWidth : 1 920 pixels \nHeight : 816 pixels \nDisplay aspect ratio : 2.35:1 \nFrame rate : 23.976 fps \nColor space : YUV \nBits/(Pixel*Frame) : 0.239 \nStream size : 6.67 GiB (84%) \nWriting library : x264 core 98 r1649 c54c47d \n\n\nAudio  \nFormat : DTS \nFormat/Info : Digital Theater Systems \nDuration : 1h 48mn \nBit rate mode : Constant \nBit rate : 1 510 Kbps \nChannel(s) : 6 channels \nChannel positions : Front: L C R, Side: L R, LFE \nSampling rate : 48.0 KHz \nBit depth : 24 bits \nVideo delay : 10ms \nStream size : 1.14 GiB (14%) \nTitle : 3/2+1 \nLanguage : English \n\nText #1  \nLanguage : English \n\nText #2  \nLanguage : Spanish \n\nText #3  \nLanguage : French \n\nText #4  \nLanguage : Spanish \n\nText #5 \n\nLanguage : French \n\nMenu Chapters 23\n\n\n\n\n &lt;a href=&quot;\nhttp://photobucket.com/The_Bourne_Supremacy_tequila_bob&quot; rel=&quot;nofollow&quot; target=&quot;_NEW&quot;&gt;\nhttp://photobucket.com/The_Bourne_Supremacy_tequila_bob&lt;/a&gt;\n","torrent":{"xt":"urn:btih:8128aa438c8c27badb12c393a5ddef3f63c97175","amp;dn":"The+Bourne+Supremacy+2004+BluRay+1080p+DTS+x264","amp;tr":["udp%3A%2F%2Ftracker.openbittorrent.com%3A80","udp%3A%2F%2Fopen.demonii.com%3A1337","udp%3A%2F%2Ftracker.coppersurfer.tk%3A6969","udp%3A%2F%2Fexodus.desync.com%3A6969"],"infoHash":"8128aa438c8c27badb12c393a5ddef3f63c97175","infoHashBuffer":{"type":"Buffer","data":[129,40,170,67,140,140,39,186,219,18,195,147,165,221,239,63,99,201,113,117]},"announce":[],"urlList":[]}}